<svg xmlns="http://www.w3.org/2000/svg" width="218" height="76" viewBox="0 0 218 76"><g transform="translate(0)"><text transform="translate(78 61)" fill="#111" font-size="30" font-family="Gilroy-Heavy, Gilroy ☞" font-weight="800" opacity="0.4"><tspan x="0" y="0">ZOE CASH</tspan></text><path d="M29.5,75.512a2.017,2.017,0,0,1-.241-.851c-.04-.478-.066-.965-.088-1.383q-.027-.533-.052-1.066v-.005c-.031-.679-.065-1.382-.109-2.072-.083-1.31-.177-2.587-.282-3.793-.032-.386-.094-.777-.154-1.154-.023-.15-.048-.3-.069-.45a.97.97,0,0,0-.338-.676.147.147,0,0,1-.025-.028l-.006-.008a4.165,4.165,0,0,0-1.479-1.207,16.828,16.828,0,0,0-2.389-1.025c-1.554-.554-3.168-.994-4.559-1.362a15.359,15.359,0,0,1-5.882-2.967,12.8,12.8,0,0,1-3.729-5.074,20.946,20.946,0,0,1-1.372-4.5c-.122-.714-.236-1.489-.361-2.438-.047-.356-.091-.717-.134-1.067a34.184,34.184,0,0,0-.664-4.054,21.259,21.259,0,0,0-1.221-3.694,6.835,6.835,0,0,0-.823-1.418,5.3,5.3,0,0,0-.562-.6,1.158,1.158,0,0,0-.6-.284,1.427,1.427,0,0,1-1.071-.863c-.024-.053-.048-.106-.075-.168s-.048-.111-.077-.178c-.009.036-.018.065-.025.089a.4.4,0,0,0-.022.105,1.945,1.945,0,0,0,.233.9c.133.261.112.352-.114.515a3.329,3.329,0,0,1-.526.306c-.226.108-.46.211-.685.31l-.363.16c-.192.086-.365.169-.531.251a2.628,2.628,0,0,0-1.019.8.282.282,0,0,1-.06-.292L.1,35.83c.077-.41.156-.833.244-1.247.095-.437.194-.832.305-1.205a1.868,1.868,0,0,0,.033-.831A8.352,8.352,0,0,1,.708,30a3.892,3.892,0,0,1,1.849-2.683,5.329,5.329,0,0,1,2.963-.859c.075,0,.151,0,.226,0a7.9,7.9,0,0,1,3.065.8,14.752,14.752,0,0,1,3.8,2.56,20.287,20.287,0,0,0,5.1,3.479c.338.16.694.3,1.038.437.153.061.305.121.456.183.064.026.128.052.225.09a12.591,12.591,0,0,1-2.5,3.034l.007.019c0,.012.008.023.012.033.027,0,.055.005.081.009a.832.832,0,0,0,.1.009.239.239,0,0,0,.076-.011l.062-.02a1.956,1.956,0,0,0,.519-.22,11.69,11.69,0,0,0,1.066-.8,17.024,17.024,0,0,0,1.96-2.021,21.436,21.436,0,0,1,3.731-3.418c2.23-1.679,4.6-3.269,6.647-4.628,3.868-2.569,7.79-5.07,11.476-7.411a1.793,1.793,0,0,0,.263-.194,54.74,54.74,0,0,0,8.122-9.337A31.723,31.723,0,0,0,53.619,4.46c.449-.975.936-1.952,1.408-2.9l.049-.1c.129-.26.285-.511.436-.753L55.52.7,55.61.55A1.794,1.794,0,0,1,56.141,0,.263.263,0,0,0,56.2,0a.768.768,0,0,1,.363.527c.018.081.036.163.055.244l0,.013a11.574,11.574,0,0,1,.222,1.168c.1.876.191,1.766.276,2.627q.047.485.1.969c.005.043.013.087.022.143l.013.07.07-.046c.059-.039.111-.072.158-.108a12.593,12.593,0,0,0,2.733-2.792l.014-.02c.071-.106.145-.217.284-.217l.028,0c.167.018.224.163.275.292l.009.022a3.7,3.7,0,0,1,.248,1.191c.037.695.053,1.324.048,1.923A6.955,6.955,0,0,1,60.9,7.662a1.937,1.937,0,0,1-.413.859.343.343,0,0,0-.052.094.6.6,0,0,1-.025.056.24.24,0,0,0,.067.011.278.278,0,0,0,.164-.069l.018-.013c.28-.192.569-.389.843-.595.416-.315.835-.642,1.239-.958l.117-.091A.648.648,0,0,1,63.24,6.8a.5.5,0,0,1,.451.405,2.286,2.286,0,0,1,.076.906,12.191,12.191,0,0,1-.467,2.319,45.843,45.843,0,0,1-1.55,4.379c-.036.093-.071.184-.123.327.046-.013.086-.022.122-.03a.685.685,0,0,0,.164-.049c.106-.05.212-.1.319-.148a7.778,7.778,0,0,0,.876-.446c.374-.232.742-.49,1.1-.738.2-.139.4-.283.61-.422a2.615,2.615,0,0,1,.509-.28.486.486,0,0,1,.173-.033.379.379,0,0,1,.355.249,1.712,1.712,0,0,1,.138.563,5.639,5.639,0,0,1-.393,2.251,13.26,13.26,0,0,1-3.341,5.1c-.277.268-.581.519-.875.762-.139.115-.284.234-.424.355a.446.446,0,0,0-.147.178l.083-.027c.05-.016.1-.032.151-.051a11.025,11.025,0,0,1,1.932-.567c.183-.032.372-.047.554-.061l.214-.017h.026c.022,0,.044,0,.068,0a.625.625,0,0,1,.519.23.6.6,0,0,1,.006.543,3.444,3.444,0,0,1-.328.645,9.018,9.018,0,0,1-1.2,1.478c-.755.771-1.439,1.445-2.089,2.061a5.913,5.913,0,0,1-1.566.98c-.172.082-.353.155-.527.226-.086.034-.169.068-.252.1a1.1,1.1,0,0,0-.1.05l-.033.018c0,.017,0,.033.007.048l.143-.006.143-.005c.215-.011.412-.015.6-.015a7.481,7.481,0,0,1,1.729.182,2.351,2.351,0,0,1,.647.26.587.587,0,0,1,.258.828,2.682,2.682,0,0,1-.386.584,6.449,6.449,0,0,1-1.142,1.005A30.65,30.65,0,0,1,56.8,33.08c-.215.117-.437.233-.651.346-.173.09-.342.179-.51.269a.418.418,0,0,0-.175.151c.057,0,.108-.01.157-.016l.067-.009a7.789,7.789,0,0,1,1.025-.093,3.094,3.094,0,0,1,.5.038,2.194,2.194,0,0,1,.58.166.59.59,0,0,1,.346.719,1.946,1.946,0,0,1-.229.586,8.243,8.243,0,0,1-.7.966,21.086,21.086,0,0,1-2.6,2.443c-.254.211-.516.419-.77.621-.2.157-.4.32-.6.484a.793.793,0,0,0-.2.226,15.867,15.867,0,0,1-2.61,3.572,22.86,22.86,0,0,1-7.062,5.01,30.346,30.346,0,0,1-7.2,2.293c-1.073.208-2.188.372-3.409.5-.3.033-.6.055-.9.076-.16.012-.32.022-.481.036-.051,0-.1.012-.157.019s-.079.012-.121.016a.347.347,0,0,0,.2.268l.063.037a6.47,6.47,0,0,0,.719.383,12.317,12.317,0,0,0,2.273.653,35.848,35.848,0,0,0,3.8.574c1.015.1,2.049.184,3.05.267h.019l.763.064c.239.021.483.035.718.05.175.011.348.022.522.034a2.42,2.42,0,0,1,.818.19.521.521,0,0,1,.357.565c-.026.331-.048.668-.069.994-.032.5-.066,1.023-.115,1.535-.081.864-.181,1.7-.3,2.493a35.7,35.7,0,0,1-2.2,8.6,16.3,16.3,0,0,1-1.742,3.211A7.191,7.191,0,0,1,37.4,73.692a20.648,20.648,0,0,1-4.45,1.727c-.636.166-1.291.307-1.923.443h-.006l-.517.112a1.057,1.057,0,0,1-.228.025A.873.873,0,0,1,29.5,75.512ZM3.51,30.687a1.094,1.094,0,0,0,1.072,1.105H4.6a1.077,1.077,0,0,0,1.091-1.067A1.1,1.1,0,0,0,4.62,29.613H4.595A1.11,1.11,0,0,0,3.51,30.687ZM17.8,31.972c.059-.087.1-.156.154-.225a68.083,68.083,0,0,0,4.706-7.463,29.273,29.273,0,0,0,2.107-4.756,14.5,14.5,0,0,0,.55-2.4,14.1,14.1,0,0,1,.56-2.493c.068-.2.161-.389.249-.58a.82.82,0,0,1,.1-.157c.2-.258.4-.264.579.012a2.785,2.785,0,0,1,.272.567,9.164,9.164,0,0,1,.418,1.8c.076.519.133,1.039.2,1.559.01.068.029.135.055.258.052-.107.08-.167.106-.223.161-.339.316-.68.489-1.013a1.719,1.719,0,0,1,.277-.377c.257-.273.486-.245.633.1a3.245,3.245,0,0,1,.249.851c.087.643.135,1.291.2,1.936.007.078.012.157.019.232,0,.012.019.023.045.055.041-.058.078-.11.116-.162.164-.228.323-.462.5-.683a1.1,1.1,0,0,1,.282-.241.3.3,0,0,1,.486.135,2.281,2.281,0,0,1,.194.863,14.174,14.174,0,0,1,0,1.855c.007.081.01.155.01.268.189-.142.331-.266.49-.363.377-.23.583-.129.652.3a3.475,3.475,0,0,1-.078,1.212c-.1.508-.232,1.005-.344,1.508a.49.49,0,0,1-.265.354,67.079,67.079,0,0,0-9.681,6.6c-.749.617-1.46,1.276-2.19,1.917-.058.049-.117.1-.188.166Z" fill="#9d9d9d"/></g></svg>