<?xml version="1.0" encoding="UTF-8" standalone="no" ?>
<!DOCTYPE svg PUBLIC "-//W3C//DTD SVG 1.1//EN" "http://www.w3.org/Graphics/SVG/1.1/DTD/svg11.dtd">
<svg xmlns="http://www.w3.org/2000/svg" xmlns:xlink="http://www.w3.org/1999/xlink" version="1.1" width="235" height="80" viewBox="0 0 235 80" xml:space="preserve">
<desc>Created with Fabric.js 4.6.0</desc>
<defs>
</defs>
<g transform="matrix(1 0 0 1 187.84 43.55)" style="" id="AW9O8OnJ7OrVjL8_iy6qJ"  >
		<text xml:space="preserve" font-family="Gilroy-Heavy, Gilroy ☞" font-size="30" font-style="normal" font-weight="800" line-height="1.16" style="stroke: none; stroke-width: 1; stroke-dasharray: none; stroke-linecap: butt; stroke-dashoffset: 0; stroke-linejoin: miter; stroke-miterlimit: 4; fill: rgb(17,17,17); fill-rule: nonzero; opacity: 0.4; white-space: pre;" ><tspan x="-109" y="9.42" >ZOE CASH</tspan></text>
</g>
<g transform="matrix(1 0 0 1 35.43 40)" id="5rfWi7-eG_Qh5Wa27HR2c"  >
<path style="stroke: none; stroke-width: 1; stroke-dasharray: none; stroke-linecap: butt; stroke-dashoffset: 0; stroke-linejoin: miter; stroke-miterlimit: 4; fill: rgb(157,157,157); fill-rule: nonzero; opacity: 1;" vector-effect="non-scaling-stroke"  transform=" translate(-33, -38)" d="M 29.5 75.512 C 29.357695257055298 75.2496571796555 29.275383180699826 74.95900333327165 29.259 74.661 C 29.219 74.183 29.193 73.696 29.171 73.278 Q 29.144 72.745 29.119 72.212 L 29.119 72.20700000000001 C 29.088 71.528 29.054 70.825 29.009999999999998 70.135 C 28.927 68.825 28.833 67.548 28.727999999999998 66.342 C 28.695999999999998 65.956 28.633999999999997 65.565 28.573999999999998 65.188 C 28.551 65.038 28.526 64.888 28.505 64.738 C 28.488363801627074 64.47623612665012 28.366429379656143 64.23236728270827 28.166999999999998 64.062 C 28.157504371011147 64.05377335133505 28.149102557219084 64.04436331988794 28.142 64.03399999999999 L 28.136 64.026 C 27.743095855228596 63.51458723077552 27.23679817834903 63.101401770333574 26.656999999999996 62.818999999999996 C 25.88828794275458 62.41624329153322 25.089571998948664 62.07355436629209 24.268 61.794 C 22.714000000000002 61.239999999999995 21.1 60.8 19.709 60.431999999999995 C 17.556809722860805 59.88008629297343 15.549984486831198 58.86780297517339 13.827000000000002 57.464999999999996 C 12.180880326889689 56.110567481082406 10.899095585213143 54.36646027291218 10.097999999999997 52.391 C 9.473132003673204 50.94728123789698 9.012896516309677 49.43776251112157 8.725999999999999 47.891 C 8.604 47.177 8.489999999999998 46.402 8.364999999999998 45.452999999999996 C 8.317999999999998 45.096999999999994 8.274 44.736 8.230999999999998 44.385999999999996 C 8.091137595501422 43.022577347792385 7.869403985003125 41.66880015357539 7.566999999999997 40.332 C 7.273764170681508 39.06593462151101 6.865053101910854 37.82942463949727 6.345999999999988 36.63799999999998 C 6.129555582419506 36.13402377375477 5.853234827665572 35.65793285001106 5.522999999999994 35.219999999999985 C 5.351483884585147 35.00575085386065 5.163585446588438 34.805147539273406 4.960999999999998 34.61999999999999 C 4.793000638442897 34.46880885842629 4.584429511235799 34.37008519154826 4.360999999999997 34.33599999999999 C 3.8797720568276404 34.25071436576243 3.4756629075769476 33.92508766566593 3.2899999999999983 33.47299999999999 C 3.2659999999999982 33.419999999999995 3.241999999999998 33.36699999999999 3.214999999999998 33.30499999999999 C 3.187999999999998 33.242999999999995 3.166999999999998 33.193999999999996 3.137999999999998 33.126999999999995 C 3.1289999999999982 33.163 3.1199999999999983 33.19199999999999 3.112999999999998 33.215999999999994 C 3.1009851421697108 33.24985335814494 3.0935852722426427 33.28517091916049 3.0909999999999984 33.32099999999999 C 3.0947736927439897 33.63542385172569 3.1747240722761667 33.944245060219075 3.3239999999999985 34.22099999999999 C 3.4569999999999985 34.48199999999999 3.4359999999999986 34.572999999999986 3.2099999999999986 34.73599999999999 C 3.0443765964792027 34.85384493552108 2.868307844908921 34.95627276438136 2.6839999999999984 35.04199999999999 C 2.4579999999999984 35.149999999999984 2.2239999999999984 35.252999999999986 1.9989999999999983 35.35199999999999 L 1.6359999999999983 35.511999999999986 C 1.4439999999999984 35.597999999999985 1.2709999999999984 35.68099999999998 1.1049999999999982 35.762999999999984 C 0.7038965836359798 35.94045458559459 0.35358600467934576 36.21547761127202 0.08599999999999897 36.56299999999998 C 0.011984963393411818 36.485055765226356 -0.011283916580083278 36.37181388268868 0.025999999999998274 36.27099999999998 L 0.1 35.83 C 0.177 35.42 0.256 34.997 0.344 34.583 C 0.43899999999999995 34.146 0.538 33.751 0.649 33.378 C 0.7223054488277859 33.10699909085432 0.7335849613983767 32.82296045612217 0.6819999999999997 32.547 C 0.5603933071731656 31.701664161858567 0.5691619216757187 30.842677195012286 0.7079999999999999 30 C 0.9022831577762955 28.878290499271188 1.5779390935488333 27.89787682935355 2.556999999999999 27.317 C 3.438370986360347 26.744792111409655 4.469242617193688 26.445933275471134 5.520000000000002 26.458 C 5.595 26.458 5.670999999999999 26.458 5.7459999999999996 26.458 C 6.811199927006979 26.5150008256255 7.85382275114719 26.787137288696353 8.811000000000003 27.258 C 10.20326481416066 27.908215519918194 11.485392653669445 28.77196480127148 12.610999999999997 29.817999999999994 C 14.123560555564591 31.231056988732583 15.843470634236388 32.40430545220301 17.71099999999999 33.297 C 18.049 33.456999999999994 18.404999999999998 33.596999999999994 18.749 33.733999999999995 C 18.901999999999997 33.794999999999995 19.054 33.855 19.205 33.916999999999994 C 19.269 33.943 19.333 33.968999999999994 19.43 34.007 C 18.760665896602536 35.14299387435391 17.917051853911357 36.166803876563925 16.93 37.041 L 16.937 37.059999999999995 C 16.937 37.071999999999996 16.945 37.083 16.949 37.092999999999996 C 16.976000000000003 37.092999999999996 17.004 37.098 17.03 37.102 C 17.063121755746334 37.10701040019099 17.09651587981434 37.110015871357106 17.130000000000003 37.111 C 17.155760640802914 37.11145377162106 17.181425179313205 37.10773916736299 17.206000000000003 37.099999999999994 L 17.268000000000004 37.07999999999999 C 17.45071498571671 37.03211068064607 17.62552992995802 36.958008006786564 17.787000000000003 36.85999999999999 C 18.157258150840953 36.613822943544896 18.513169784542843 36.346722280353994 18.853 36.059999999999995 C 19.56101169742882 35.44160351542084 20.216586157440293 34.76562597272534 20.813000000000002 34.038999999999994 C 21.91736433735317 32.756364241956746 23.169753877027592 31.60903981241851 24.543999999999997 30.621000000000002 C 26.774000000000004 28.941999999999997 29.144000000000005 27.351999999999997 31.191000000000003 25.992999999999995 C 35.059000000000005 23.423999999999996 38.981 20.922999999999995 42.667 18.581999999999994 C 42.760389564714686 18.525474333742018 42.848421813287985 18.460537998292512 42.93 18.387999999999995 C 45.98156784148438 15.592683770923957 48.70630870006161 12.46033885630495 51.05200000000001 9.050999999999991 C 52.03328068834627 7.59436567767983 52.8918980268471 6.058755159153402 53.619 4.460000000000003 C 54.068 3.485 54.555 2.508 55.027 1.56 L 55.076 1.46 C 55.205 1.2 55.361 0.949 55.512 0.707 L 55.52 0.7 L 55.61 0.55 C 55.74542730959481 0.33064439419940306 55.92653903881292 0.1430522076269738 56.141 5.551115123125783e-16 C 56.16060441538175 0.002212939466052901 56.18039558461825 0.0022129394660528393 56.2 -5.551115123125783e-17 C 56.39190823694781 0.11448973767298916 56.5244330806298 0.3068880644509724 56.563 0.5269999999999997 C 56.581 0.608 56.599000000000004 0.6900000000000001 56.618 0.771 L 56.618 0.784 C 56.71196098823 1.1692729877745407 56.78605872240354 1.5591205261290213 56.84 1.9520000000000028 C 56.940000000000005 2.828 57.031000000000006 3.718 57.11600000000001 4.579 Q 57.163000000000004 5.064 57.21600000000001 5.548 C 57.22100000000001 5.591 57.229000000000006 5.635 57.23800000000001 5.691 L 57.251000000000005 5.761 L 57.321000000000005 5.715 C 57.38 5.676 57.432 5.643 57.479000000000006 5.607 C 58.529701652483915 4.824180367627202 59.45179665166177 3.8821791829566603 60.212 2.8150000000000013 L 60.226000000000006 2.7950000000000004 C 60.297000000000004 2.6890000000000005 60.37100000000001 2.5780000000000003 60.510000000000005 2.5780000000000003 L 60.538000000000004 2.5780000000000003 C 60.705000000000005 2.596 60.762 2.741 60.813 2.87 L 60.822 2.892 C 60.96981354732908 3.2725973875703334 61.05361267558133 3.6750359430075177 61.07 4.083 C 61.107 4.7780000000000005 61.123 5.407 61.118 6.006 C 61.11212100052662 6.564753097139272 61.038926640711445 7.120761628579266 60.9 7.662 C 60.83602882814787 7.978262991290527 60.69406448546046 8.273535074507189 60.487 8.521 C 60.464837143887934 8.549407685288529 60.44728863931555 8.581129982015524 60.435 8.615 C 60.42762671419772 8.63408062263357 60.41928248410648 8.652771698037947 60.410000000000004 8.671 C 60.43169920819904 8.677823197621096 60.454258235421506 8.681526918508366 60.477000000000004 8.681999999999999 C 60.53774944678887 8.677587170620178 60.59536838111016 8.653345058009391 60.641000000000005 8.612999999999998 L 60.659000000000006 8.599999999999998 C 60.93900000000001 8.407999999999998 61.22800000000001 8.210999999999999 61.50200000000001 8.004999999999997 C 61.918000000000006 7.689999999999997 62.33700000000001 7.362999999999997 62.74100000000001 7.046999999999997 L 62.858000000000004 6.955999999999997 C 62.96493347844042 6.863765216991377 63.09907002141012 6.80898694289904 63.24 6.8 C 63.46435580188619 6.818097955710368 63.64896269655489 6.983875765778708 63.691 7.205 C 63.77673889389989 7.49886526653793 63.80258328366461 7.806957597154234 63.767 8.111 C 63.68687559186039 8.897310902076683 63.530472812515505 9.673966245333212 63.300000000000004 10.43 C 62.85766615566821 11.914922251786196 62.34033552221775 13.376464731708488 61.75 14.808999999999997 C 61.714000000000006 14.902 61.67900000000001 14.992999999999999 61.62700000000001 15.136 C 61.67300000000001 15.123 61.71300000000001 15.113999999999999 61.74900000000001 15.106 C 61.80550032223308 15.096587657521916 61.86059700442344 15.080125843940648 61.91300000000001 15.057 C 62.01900000000001 15.007 62.125000000000014 14.957 62.23200000000001 14.909 C 62.53311173332125 14.778952314087947 62.8256958959466 14.629988231290106 63.10800000000001 14.463000000000001 C 63.48200000000001 14.231000000000002 63.85000000000001 13.973 64.20800000000001 13.725000000000001 C 64.40800000000002 13.586000000000002 64.60800000000002 13.442000000000002 64.81800000000001 13.303 C 64.9767407396072 13.191051838132397 65.14746058998372 13.097139150302477 65.32700000000001 13.023000000000001 C 65.38217567093413 13.001555822641564 65.44080482407576 12.99037222695559 65.50000000000001 12.990000000000002 C 65.65881584820028 12.990422188243366 65.80052527562829 13.089818378185837 65.85500000000002 13.239000000000003 C 65.9326675983253 13.417458188208611 65.97933641639372 13.607853438734168 65.99300000000002 13.802000000000003 C 66.01699178575703 14.571290763015638 65.88324627680763 15.337349645064286 65.60000000000002 16.053000000000004 C 64.89758347664574 17.989429112908084 63.753681895786364 19.735582379110653 62.25900000000002 21.153000000000006 C 61.98200000000002 21.421000000000006 61.67800000000002 21.672000000000004 61.38400000000002 21.915000000000006 C 61.24500000000002 22.030000000000005 61.10000000000002 22.149000000000008 60.96000000000002 22.270000000000007 C 60.89622738658569 22.31540392780106 60.84552902387812 22.376793781963976 60.813000000000024 22.448000000000008 L 60.89600000000002 22.421000000000006 C 60.94600000000002 22.40500000000001 60.99600000000002 22.389000000000006 61.047000000000025 22.370000000000008 C 61.672357352463585 22.12246605442589 62.31905354477127 21.932674780596457 62.97900000000002 21.803000000000008 C 63.16200000000003 21.771000000000008 63.35100000000003 21.756000000000007 63.53300000000003 21.742000000000008 L 63.74700000000003 21.72500000000001 L 63.77300000000003 21.72500000000001 C 63.79500000000003 21.72500000000001 63.81700000000003 21.72500000000001 63.84100000000003 21.72500000000001 C 64.04084714789805 21.714145571929684 64.23380499866991 21.799656758206233 64.36000000000003 21.95500000000001 C 64.44847996147993 22.124685985800955 64.45070884921344 22.326400325683114 64.36600000000003 22.498000000000008 C 64.27961916016255 22.723921218979946 64.16967916050811 22.94011420610528 64.03800000000003 23.143000000000008 C 63.69127004367215 23.67662730194487 63.289029128740005 24.172054028836296 62.83800000000002 24.62100000000001 C 62.08300000000002 25.39200000000001 61.39900000000002 26.06600000000001 60.749000000000024 26.68200000000001 C 60.2815684071034 27.088695475617023 59.753120511003885 27.419397224133956 59.18300000000002 27.66200000000001 C 59.011000000000024 27.74400000000001 58.83000000000002 27.81700000000001 58.65600000000002 27.88800000000001 C 58.57000000000002 27.922000000000008 58.48700000000002 27.95600000000001 58.40400000000002 27.98800000000001 C 58.36984067351667 28.002960805678153 58.33646424043254 28.019649022220218 58.304000000000016 28.03800000000001 L 58.271000000000015 28.05600000000001 C 58.271000000000015 28.07300000000001 58.271000000000015 28.089000000000013 58.27800000000001 28.10400000000001 L 58.421000000000014 28.09800000000001 L 58.564000000000014 28.09300000000001 C 58.77900000000002 28.08200000000001 58.97600000000001 28.07800000000001 59.164000000000016 28.07800000000001 C 59.7454479772749 28.071264195075077 60.32569861174566 28.132343209229894 60.893000000000015 28.26000000000001 C 61.12039148239332 28.314024608890605 61.338456021467024 28.401654871887768 61.54000000000001 28.52000000000001 C 61.68946956111358 28.58992201250386 61.80260506158238 28.719528333747352 61.851695144800566 28.877073251982445 C 61.90078522801875 29.03461817021754 61.881295585074064 29.205549717307264 61.798000000000016 29.34800000000001 C 61.69540029245117 29.558694600998482 61.565628471344134 29.75503331479773 61.41200000000001 29.93200000000001 C 61.07231619400286 30.310881499030312 60.68898324878234 30.64822791754749 60.27000000000001 30.93700000000001 C 59.162194768814 31.727581565493068 58.00296243818987 32.44349939965085 56.8 33.08 C 56.584999999999994 33.196999999999996 56.363 33.312999999999995 56.148999999999994 33.425999999999995 C 55.97599999999999 33.516 55.806999999999995 33.605 55.638999999999996 33.69499999999999 C 55.56763323251379 33.727883962875566 55.506980777651066 33.78021836678569 55.464 33.846 C 55.521 33.846 55.571999999999996 33.836 55.620999999999995 33.83 L 55.687999999999995 33.821 C 56.0272426523702 33.767435915043116 56.36965663960114 33.7363681093724 56.71299999999999 33.727999999999994 C 56.880420284722575 33.72711779732484 57.047635972272744 33.73982618957865 57.212999999999994 33.76599999999999 C 57.41305482314573 33.79436195317333 57.608232859184405 33.85022325314302 57.79299999999999 33.93199999999999 C 58.07748110823847 34.045521371234635 58.22778342806028 34.357854804621574 58.13899999999999 34.65099999999999 C 58.09495733690423 34.857461517770936 58.017613388315084 35.05538096699905 57.90999999999999 35.23699999999999 C 57.70030408544344 35.57548401622993 57.46635824943866 35.898329269916516 57.20999999999999 36.20299999999999 C 56.41390423256126 37.089321012283875 55.54412512841434 37.906578839757294 54.609999999999985 38.64599999999999 C 54.35599999999999 38.856999999999985 54.09399999999999 39.06499999999998 53.83999999999998 39.26699999999999 C 53.63999999999998 39.423999999999985 53.43999999999998 39.58699999999999 53.23999999999998 39.75099999999999 C 53.15948119728318 39.81283634255942 53.09158525965655 39.88955875207752 53.03999999999998 39.97699999999999 C 52.34107031202321 41.28370403598241 51.46253321640984 42.486054421243324 50.42999999999998 43.54899999999999 C 48.41665361498741 45.65363165043729 46.01966455549085 47.35412941142253 43.36799999999998 48.55899999999999 C 41.072906474329216 49.62032143505736 38.65415981839111 50.39062505756654 36.16799999999998 50.85199999999999 C 35.09499999999998 51.05999999999999 33.979999999999976 51.22399999999999 32.75899999999998 51.35199999999999 C 32.45899999999998 51.38499999999999 32.15899999999998 51.40699999999999 31.85899999999998 51.42799999999999 C 31.69899999999998 51.43999999999999 31.53899999999998 51.44999999999999 31.37799999999998 51.46399999999999 C 31.32699999999998 51.46399999999999 31.277999999999977 51.47599999999999 31.22099999999998 51.48299999999999 C 31.16399999999998 51.48999999999999 31.141999999999978 51.49499999999999 31.09999999999998 51.49899999999999 C 31.116386017400657 51.61668321749343 31.19184636305677 51.71780008067262 31.29999999999998 51.76699999999999 L 31.36299999999998 51.80399999999999 C 31.594383391691835 51.94664328646203 31.83452595223287 52.07456345431629 32.08199999999998 52.18699999999999 C 32.81696776206661 52.4770694993751 33.578142162515775 52.695743887185614 34.35499999999998 52.83999999999999 C 35.61049210748064 53.099141441467765 36.87898112575722 53.290750045807435 38.15499999999998 53.41399999999999 C 39.16999999999998 53.51399999999999 40.20399999999998 53.597999999999985 41.20499999999998 53.68099999999999 L 41.223999999999975 53.68099999999999 L 41.98699999999997 53.74499999999999 C 42.22599999999997 53.76599999999999 42.46999999999997 53.77999999999999 42.70499999999997 53.79499999999999 C 42.87999999999997 53.80599999999999 43.05299999999997 53.816999999999986 43.22699999999997 53.828999999999986 C 43.508655815789396 53.84417813129085 43.785489743025245 53.90847941023316 44.044999999999966 54.018999999999984 C 44.28503329504266 54.09614374299777 44.43538467837249 54.334094811853106 44.401999999999965 54.58399999999998 C 44.37599999999996 54.914999999999985 44.353999999999964 55.25199999999998 44.33299999999996 55.57799999999998 C 44.300999999999966 56.07799999999998 44.26699999999996 56.600999999999985 44.21799999999996 57.11299999999998 C 44.13699999999996 57.976999999999975 44.03699999999996 58.81299999999998 43.917999999999964 59.60599999999998 C 43.54531419980754 62.55303066735417 42.806269009433755 65.44202550245171 41.71799999999997 68.20599999999997 C 41.25948609987531 69.3382259591137 40.67515064455674 70.41532191033525 39.975999999999964 71.41699999999997 C 39.31383208441652 72.37239280233187 38.4299229618636 73.15301906545608 37.4 73.692 C 35.988419225428366 74.43776456161865 34.49510984971314 75.01730282945239 32.949999999999996 75.419 C 32.31399999999999 75.585 31.658999999999995 75.726 31.026999999999994 75.862 L 31.020999999999994 75.862 L 30.503999999999994 75.97399999999999 C 30.429131827784023 75.99057898532638 30.352681839410756 75.9989616594901 30.275999999999993 75.999 C 29.94609136997761 75.99633868920309 29.64586426545741 75.80792296768074 29.5 75.512 Z M 3.51 30.687 C 3.503846231872188 31.286984346070916 3.982104798007435 31.77996542403682 4.582000000000001 31.792 L 4.6 31.792 C 4.886330730881881 31.795734469026105 5.162360597069764 31.68528686780547 5.367083461118574 31.48506753147176 C 5.571806325167383 31.284848195138046 5.688365530802064 31.011342964429556 5.691 30.725 C 5.697764920537423 30.123979127410706 5.22085102951512 29.628808028608837 4.620000000000001 29.613 L 4.595 29.613 C 4.005472541051391 29.625975269033237 3.5289816669431415 30.09763536008601 3.51 30.687 Z M 17.8 31.972 C 17.859 31.885 17.900000000000002 31.816000000000003 17.954 31.747 C 19.682374291426846 29.36369831207961 21.254340813373837 26.87079857699877 22.660000000000004 24.283999999999992 C 23.502078034047344 22.76433399554612 24.207194601030384 21.172718242071358 24.767000000000003 19.527999999999995 C 25.018047748769046 18.74504083325169 25.202044270299634 17.942146921118223 25.317 17.128000000000007 C 25.42783223943258 16.281764399490175 25.61526830240799 15.44733921199427 25.876999999999995 14.635000000000002 C 25.945 14.435 26.038 14.246 26.125999999999998 14.055 C 26.153266116250105 13.999040661747223 26.18681555357472 13.946368045147572 26.226 13.898 C 26.426 13.64 26.625999999999998 13.634 26.805 13.91 C 26.91678287273769 14.08812452078795 27.00803111395453 14.278336847148056 27.076999999999998 14.477 C 27.2766261836661 15.061383397603839 27.416671330698772 15.664448624060316 27.494999999999997 16.276999999999997 C 27.570999999999998 16.796 27.627999999999997 17.316000000000003 27.694999999999997 17.836000000000002 C 27.705 17.904000000000003 27.723999999999997 17.971000000000004 27.749999999999996 18.094 C 27.801999999999996 17.987000000000002 27.829999999999995 17.927 27.855999999999998 17.871000000000002 C 28.017 17.532000000000004 28.171999999999997 17.191000000000003 28.345 16.858000000000004 C 28.419722044149413 16.720297621485283 28.512918213250344 16.593456625994126 28.622 16.481000000000005 C 28.879 16.208000000000006 29.108 16.236000000000004 29.255 16.581000000000007 C 29.376546847650946 16.851937369150466 29.460328789984295 17.138276457205393 29.503999999999998 17.432000000000006 C 29.590999999999998 18.075000000000006 29.639 18.723000000000006 29.703999999999997 19.368000000000006 C 29.711 19.446000000000005 29.715999999999998 19.525000000000006 29.722999999999995 19.600000000000005 C 29.722999999999995 19.612000000000005 29.741999999999994 19.623000000000005 29.767999999999997 19.655000000000005 C 29.808999999999997 19.597000000000005 29.845999999999997 19.545000000000005 29.883999999999997 19.493000000000006 C 30.048 19.265000000000004 30.206999999999997 19.031000000000006 30.383999999999997 18.810000000000006 C 30.463679187594963 18.714281884866924 30.559034774165557 18.632790053790636 30.665999999999997 18.569000000000006 C 30.74215703597983 18.501178116373946 30.847551977960265 18.47668815533111 30.945810502777096 18.503982190002453 C 31.044069027593928 18.531276224673796 31.121733482219827 18.60661601810728 31.151999999999997 18.704000000000008 C 31.27235784916877 18.976252489743086 31.338263462376556 19.269430552621017 31.345999999999997 19.567000000000007 C 31.386505109045693 20.184669992150535 31.386505109045697 20.804330007849465 31.345999999999997 21.421999999999997 C 31.352999999999998 21.503000000000007 31.355999999999998 21.57700000000001 31.355999999999998 21.69000000000001 C 31.544999999999998 21.54800000000001 31.686999999999998 21.424000000000007 31.845999999999997 21.32700000000001 C 32.223 21.09700000000001 32.428999999999995 21.198000000000008 32.498 21.62700000000001 C 32.54334764377212 22.032446428421633 32.516944479211936 22.4427109854338 32.419999999999995 22.83900000000001 C 32.31999999999999 23.34700000000001 32.187999999999995 23.84400000000001 32.07599999999999 24.34700000000001 C 32.048960334031094 24.500415565783683 31.950582932553473 24.631832924738692 31.810999999999993 24.701000000000008 C 28.397671572669932 26.614418318977076 25.158317512867974 28.822840671491573 22.129999999999967 31.301000000000023 C 21.380999999999997 31.91800000000001 20.669999999999995 32.57700000000001 19.939999999999994 33.21800000000001 C 19.881999999999994 33.26700000000001 19.822999999999993 33.31800000000001 19.751999999999995 33.38400000000001 Z" stroke-linecap="round" />
</g>
</svg>