<svg xmlns="http://www.w3.org/2000/svg" width="20" height="25" viewBox="0 0 20 25"><path d="M.715,25c0-.956,0-1.912,0-2.866H19.285c0,.956,0,1.912,0,2.867ZM20,20.668H0v-9.69H20v9.689h0Zm-6.381-8V14.8q0,2.129,0,4.26H15.07v-2.1h2c0-.44,0-.906,0-1.464h-2q0-.455,0-.908v-.455h2.515c0-.44,0-.906,0-1.465Zm-11.3,6.389H3.772V18.008q0-.525,0-1.049c.056,0,.117,0,.187,0l.2,0H4.2l.246,0a2.567,2.567,0,0,0,.862-.115,2.153,2.153,0,0,0,.769-3.607,2.115,2.115,0,0,0-1.437-.572H2.321C2.32,14.586,2.32,16.617,2.321,19.056Zm5.574-6.389v3.185q0,1.592,0,3.184h2.348a2.119,2.119,0,0,0,1.614-.8,2.2,2.2,0,0,0,.475-1.39c0-.262,0-.525,0-.787,0-.43,0-.875,0-1.311a2.16,2.16,0,0,0-1.343-1.928,2.185,2.185,0,0,0-.829-.154H7.895Zm1.8,4.9c-.115,0-.23,0-.346,0V14.131h.32c.193,0,.386,0,.579,0a.68.68,0,0,1,.632.658c.006.7,0,1.4,0,2.1a.684.684,0,0,1-.637.672c-.114,0-.228,0-.342,0ZM4.1,15.494H3.773q0-.682,0-1.363c.115,0,.231,0,.346,0,.186,0,.374,0,.561,0a.68.68,0,0,1,0,1.355c-.113,0-.227.005-.34.005ZM.715,9.512q0-1.354,0-2.709H7.459q0-3.4,0-6.8H19.286q0,4.756,0,9.512H.715ZM.954,5.339Q3.48,2.787,6.008.238q0,2.55,0,5.1Z" fill="#222" opacity="0.4"/></svg>