<svg xmlns="http://www.w3.org/2000/svg" xmlns:xlink="http://www.w3.org/1999/xlink" width="428.368" height="141.256" viewBox="0 0 428.368 141.256"><defs><filter id="a" x="0" y="0" width="428.368" height="141.256" filterUnits="userSpaceOnUse"><feOffset dy="20" input="SourceAlpha"/><feGaussianBlur stdDeviation="20" result="b"/><feFlood flood-color="#f2f2f2" flood-opacity="0.502"/><feComposite operator="in" in2="b"/><feComposite in="SourceGraphic"/></filter></defs><g transform="matrix(1, 0, 0, 1, 0, 0)" filter="url(#a)"><path d="M0,20c0-.006,0-.011,0,0,0-.006,0-.011,0,0H0A10.018,10.018,0,0,1,10,10H126.68L155.564,0l27.491,10H297a10,10,0,0,1,10,10h0c0,.768,0-.7,0,0H0c-.608,0,.651-.22,0,0-.22.066.424.09,0,0-.381.15-.581-.471,0,0,.019.079-.016.035,0,0Z" transform="translate(60.87 40.53)" fill="#fff" stroke="#f1f1f1" stroke-miterlimit="10" stroke-width="1"/></g></svg>