<svg xmlns="http://www.w3.org/2000/svg" width="84" height="84" viewBox="0 0 84 84"><path d="M40.962,84A42.108,42.108,0,0,1,6.481,64.4,40.869,40.869,0,0,1,1.815,54.236,42.646,42.646,0,0,1,0,43.195v-2.37A41.98,41.98,0,0,1,19.4,6.611,40.713,40.713,0,0,1,29.646,1.853,42.8,42.8,0,0,1,40.8,0h2.255a42.077,42.077,0,0,1,37.23,24.711,41.086,41.086,0,0,1,2.649,7.866A43.805,43.805,0,0,1,84,40.811v2.227A41.984,41.984,0,0,1,69.126,74.053a41.949,41.949,0,0,1-16.262,8.525A43.279,43.279,0,0,1,43.055,84ZM20.125,35.878a5.82,5.82,0,0,0-1.594.22,6.125,6.125,0,0,0-.885,11.491,12.458,12.458,0,0,0,1.086,7.194,18.391,18.391,0,0,0,7.621,7.778A31.419,31.419,0,0,0,41.677,66.5h.3A31.82,31.82,0,0,0,57.13,62.867a19.3,19.3,0,0,0,7.758-7.315,12.435,12.435,0,0,0,1.481-7.937,6.269,6.269,0,0,0,3.57-4.8,6.12,6.12,0,0,0-2.668-5.9,5.883,5.883,0,0,0-3.37-1.021,6.091,6.091,0,0,0-4.278,1.7A30.065,30.065,0,0,0,43.245,32.4c.958-4.532,1.941-9.15,2.787-13.123,2.769.579,5.747,1.212,9.1,1.937A4.454,4.454,0,0,0,57.7,24.987a4.144,4.144,0,0,0,1.762.387,4.374,4.374,0,1,0,.023-8.748,4.161,4.161,0,0,0-1.235.185,4.446,4.446,0,0,0-2.664,2.253l-3.966-.842c-2.02-.429-4.108-.874-6.163-1.307a.962.962,0,0,0-.274-.039,1.086,1.086,0,0,0-1.055.836c-.7,3.281-1.4,6.62-2.067,9.85q-.5,2.417-1.006,4.828a30.026,30.026,0,0,0-16.668,5.189A6.191,6.191,0,0,0,20.125,35.878Zm16.4,24.594a10.557,10.557,0,0,1-4.968-2.622,1.129,1.129,0,0,1,1.676-1.511,8.633,8.633,0,0,0,3.685,1.885,20.2,20.2,0,0,0,10.183,0,8.584,8.584,0,0,0,3.679-1.876,1.138,1.138,0,0,1,1.64,0,1.159,1.159,0,0,1-.129,1.687,12.864,12.864,0,0,1-7.032,2.877,23.224,23.224,0,0,1-3.262.231A22.322,22.322,0,0,1,36.52,60.472ZM47.29,46.945a4.373,4.373,0,1,1,4.877,3.77,3.833,3.833,0,0,1-.576.043A4.429,4.429,0,0,1,47.29,46.945Zm-15.127,3.8a4.294,4.294,0,1,1,.262.009Q32.294,50.754,32.162,50.745Z" fill="#222"/></svg>