<svg xmlns="http://www.w3.org/2000/svg" width="84" height="84" viewBox="0 0 84 84"><path d="M42.95,84h-1.84A42.018,42.018,0,0,1,0,42.868V41.04A42.782,42.782,0,0,1,1.7,30.122,42.1,42.1,0,0,1,19.3,6.667,40.862,40.862,0,0,1,29.673,1.841,42.418,42.418,0,0,1,40.968,0h2.351A42.024,42.024,0,0,1,84,41.429V42.7A41.934,41.934,0,0,1,68.046,74.936,41.758,41.758,0,0,1,51.138,83,43.839,43.839,0,0,1,42.95,84Zm6.684-49.273a.9.9,0,0,1,.171.016l.01,0,.007,0,.016,0a.589.589,0,0,1,.338.212l.013.017L50.2,35a1.9,1.9,0,0,1,.068.2l0,.01,0,.006,0,.013a.6.6,0,0,1-.054.516l-.028.041,0,.006-.024.035-.005.007-.025.034,0,.006-.027.036-.031.042-.008.01,0,0-.016.021L50.03,36l-.01.013c-.208.264-.44.508-.665.743l-.1.1-.117.124-.2.2c-2.065,2.1-4.249,4.137-6.362,6.106l-.012.011-.038.036c-.71.663-1.445,1.348-2.175,2.036l-.047.044-.1.1-.118.112-.019.018c-.714.675-1.347,1.28-1.933,1.85l-.01.01-.01.01-.148.144-.021.021-.021.021-.127.124-.069.068-.105.1-.082.081-.011.011-.025.025-.059.058-.11.108-.012.012-.022.022-.035.035-.152.151-.015.015-.015.015-.185.184-.037.038a8.011,8.011,0,0,0-.648.75,2.169,2.169,0,0,0-.523,1.782,3.006,3.006,0,0,0,.86,1.337,8.81,8.81,0,0,0,1.042.83l.1.073.352.234.193.129.122.082c1.853,1.238,3.714,2.5,5.616,3.794l.47.319c.471.318.952.636,1.416.945l.116.077c.889.59,1.9,1.258,2.867,1.952l.014.01.078.056.112.081a10.19,10.19,0,0,0,3.333,1.751l.12.027.052.01.026,0,.024,0,.178.029a4.478,4.478,0,0,0,.647.051,2.678,2.678,0,0,0,1-.174l.008,0,.006,0,.009,0,.016-.007.007,0,.018-.008,0,0,.019-.009.023-.011.021-.01,0,0,.016-.008.007,0,.016-.008.007,0,.014-.008.008,0,.013-.007.01-.006.011-.006.013-.007.009-.005.015-.009.006,0,.017-.01,0,0a1.809,1.809,0,0,0,.213-.156l.02-.018.021-.018.04-.036.009-.008.006-.006,0,0,.015-.014a4.552,4.552,0,0,0,1.093-1.737,13.2,13.2,0,0,0,.519-1.878l.062-.339c.752-4.093,1.464-8.15,2.116-12.056l.033-.2,0-.011.01-.057.015-.089.067-.4,0-.017,0-.017q.156-.943.308-1.876l.141-.887c.286-1.8.58-3.65.861-5.51l.005-.033.006-.037.005-.033c.415-2.757.724-5.034.972-7.168v-.011l.023-.2,0-.042,0-.025.017-.153.01-.091v-.008l0-.025.011-.1.014-.122,0-.02,0-.035.005-.049.019-.171,0-.02,0-.041.022-.208V28.8l.025-.237a3.336,3.336,0,0,0-.635-2.763l-.02-.016-.009-.007-.006,0-.006,0-.01-.008,0,0-.006,0-.012-.009-.009-.007-.012-.009-.01-.007-.012-.008-.01-.007-.011-.007-.012-.008-.01-.007-.014-.009-.007,0-.019-.012a2.411,2.411,0,0,0-.868-.32l-.023,0-.011,0-.012,0-.022,0a3.464,3.464,0,0,0-.512-.037,4.6,4.6,0,0,0-.86.086c-.212.04-.435.089-.664.146l-.01,0-.037.009-.016,0-.031.008-.009,0-.009,0-.034.009-.007,0-.007,0-.032.009-.017,0-.017,0-.006,0-.067.018-.036.01-.01,0-.007,0-.031.009-.006,0-.012,0-.032.009-.007,0-.007,0-.03.009-.02.006-.026.008-.02.006-.008,0-.012,0-.039.012-.007,0-.007,0c-.46.137-.919.295-1.346.445l-.27.1-.006,0-.321.113-.226.083-.042.016c-1.429.53-2.932,1.119-4.873,1.911l-.079.032-.1.042-.137.056-.009,0c-.659.269-1.3.535-1.9.781l-.464.192-.084.035-.121.05c-.828.342-1.682.695-2.523,1.037l-.336.14-.171.071-.129.054c-2.771,1.154-5.715,2.4-9.264,3.933-2.584,1.113-5.224,2.261-7.554,3.274l-.008,0-.311.135c-2.689,1.169-5.47,2.378-8.217,3.559l-.088.038-.19.082a6.313,6.313,0,0,0-2.014,1.294,1.325,1.325,0,0,0-.173.218l0,0-.007.012-.008.013a1.2,1.2,0,0,0-.13.991l.007.019.007.02.009.023,0,.006,0,.006,0,.011,0,.006.008.017a2.035,2.035,0,0,0,.929.86q.08.043.16.082l.071.032a20.615,20.615,0,0,0,2.3.828c.2.064.4.126.6.19l.007,0,.041.013.018.006.034.011.022.007.031.01.027.009.013,0,.013,0,.015.005.012,0,.028.009.053.018.2.061a48.267,48.267,0,0,0,4.709,1.282l.009,0,.069.014.022,0,.01,0,.013,0,.037.007.034.006.014,0,.013,0,.021,0,.167.031a7.549,7.549,0,0,0,1.393.14c.164,0,.328-.007.486-.021h.014l.021,0,.027,0h.007a4.762,4.762,0,0,0,.517-.081h0l.033-.007.011,0,.007,0,.019,0,.027-.006.011,0,.033-.008h.006l.08-.021.065-.016.009,0a10.959,10.959,0,0,0,3.29-1.633c.22-.147.44-.3.653-.444.162-.112.326-.224.491-.335q.194-.131.388-.259l.006,0,.032-.021,1.529-1.028.486-.327.009-.006q1.788-1.2,3.576-2.4l.04-.027.082-.055.012-.008.012-.008c3.018-2.023,5.328-3.555,7.491-4.968l.025-.016.347-.227.386-.251.147-.1.208-.135c.431-.281.92-.6,1.413-.864l.048-.025A1.248,1.248,0,0,1,49.634,34.727Z" transform="translate(0)" fill="#222"/></svg>