<svg xmlns="http://www.w3.org/2000/svg" width="84" height="84" viewBox="0 0 84 84"><path d="M42.366,84h-.707A42.044,42.044,0,0,1,6.543,64.5a41.187,41.187,0,0,1-4.8-10.546A42.36,42.36,0,0,1,0,42.5v-.841A42.9,42.9,0,0,1,1.507,30.847,42.016,42.016,0,0,1,41.631,0h.7A42.209,42.209,0,0,1,59.368,3.76,42.155,42.155,0,0,1,80.231,24.612,42.236,42.236,0,0,1,84,41.628v.812A42.026,42.026,0,0,1,42.366,84ZM18.8,60.736h0c.177.1.354.21.531.316l.027.016.407.243,0,0,.011.006.013.008.013.008c.289.171.527.308.747.429l.012.007.051.028.019.01.01.006.048.026.054.029.01.005.01.005.059.031.005,0,.005,0,.228.116.074.037.007,0,.076.037A28.586,28.586,0,0,0,33.9,65.235l.211,0h.225A29.215,29.215,0,0,0,44.9,63.291l.24-.094.136-.056.017-.007.013-.005.1-.043.083-.036.011,0,.015-.006.021-.009a27.511,27.511,0,0,0,7.077-4.386l0,0,.082-.071.012-.01.017-.015.039-.034.017-.015.016-.014.036-.031.106-.094.1-.088A29.521,29.521,0,0,0,62.73,35.575v-.1l0-.1a21.4,21.4,0,0,0,4.871-5l.016-.022.01-.015.006-.009.032-.046.065-.094c-.389.167-.776.321-1.149.456l0,0-.082.03-.015.005-.073.026-.015.005-.071.025-.021.007-.011,0-.055.019-.025.009-.013,0-.048.017-.045.015-.041.014L66,30.843l-.01,0-.026.009-.058.019-.006,0-.024.008-.063.02-.012,0-.012,0-.071.023-.008,0-.008,0-.075.024-.007,0-.007,0-.081.025-.006,0-.087.027c-.538.163-1.086.306-1.628.424l-.089.019-.089.019-.009,0-.079.016h-.014l-.075.015-.016,0-.077.015-.014,0-.071.014-.008,0-.014,0-.068.013H63.18l-.016,0-.062.011-.011,0-.02,0-.056.01L63,31.6l-.021,0-.034.006-.016,0-.016,0-.026,0-.041.007h-.008l-.044.007-.027,0-.015,0-.016,0-.035.006-.024,0-.013,0-.056.009-.019,0-.011,0-.062.009-.015,0-.011,0-.067.01-.013,0-.078.011h-.016l-.075.01h-.015l-.076.01-.013,0h-.009l-.161.02.048-.031.04-.026.006,0a10.483,10.483,0,0,0,4.289-5.425l.018-.056A21,21,0,0,1,60,28.642a10.155,10.155,0,0,0-6.836-3.15h-.011c-.171-.009-.342-.013-.508-.013-.225,0-.454.008-.68.024h-.007l-.025,0A9.487,9.487,0,0,0,50.6,25.7a10.053,10.053,0,0,0-7.744,11.939l.007.033v.019l.023.108-.17-.009-.137-.008h-.006l-.133-.008-.046,0-.086-.006-.116-.008h-.012a28.209,28.209,0,0,1-8.2-1.879l-.1-.039-.1-.04-.01,0-.006,0c-.194-.078-.39-.159-.583-.241s-.374-.162-.561-.246l-.064-.029-.023-.011-.011-.005a28.273,28.273,0,0,1-7.273-4.779l-.014-.013-.081-.074-.067-.062-.03-.028-.1-.092-.006-.005-.111-.1-.057-.05-.008-.007a14.214,14.214,0,0,1-1.134-1.127c-.2-.217-.4-.441-.589-.658-.242-.274-.493-.557-.746-.828l-.051-.055-.007-.008-.052-.055-.031.055-.007.013,0,.009,0,.008-.013.024a10.131,10.131,0,0,0-.913,7.655l.015.053,0,.009,0,.006.011.039,0,.007A10.151,10.151,0,0,0,25.3,40.715l-.069,0a10.6,10.6,0,0,1-4.2-1.111l-.005,0-.005,0-.034-.017-.01-.005-.01,0-.016-.008-.016-.008-.009,0-.175-.091v.061q0,.059,0,.118a11,11,0,0,0,.118,1.329v.012l.007.047,0,.02v.008l0,.01,0,.018.009.056a9.957,9.957,0,0,0,2.491,5.188l.006.007.006.007,0,.005.022.023.029.031,0,0,.007.008.037.039,0,0,.042.043.064.069.009.01.006.007.051.053,0,0,0,0a10.182,10.182,0,0,0,4.836,2.717l.012,0,.01,0,.068.017.057.014h.006l.013,0,.018,0,.1.023a11.328,11.328,0,0,1-2.724.342,9.931,9.931,0,0,1-1.8-.163c.149.409.312.8.485,1.174l0,.006.021.044.009.019.01.021,0,.007,0,.006.013.026,0,.008a9.419,9.419,0,0,0,1.211,1.913l0,.006.032.039,0,0,0,0,.03.035.005.006.005.006.029.034,0,0,.006.007.039.045a10.066,10.066,0,0,0,7.034,3.534l.059,0h.014l.04,0h.23l.067,0-.147.112-.062.047-.006,0-.02.015-.011.008-.007.005-.019.014-.011.008A20.482,20.482,0,0,1,25.945,60.3l-.215.053-.013,0-.006,0-.048.011-.042.01-.007,0-.017,0-.059.014h-.005a19.732,19.732,0,0,1-4.319.454C20.441,60.851,19.63,60.812,18.8,60.736Z" transform="translate(0)" fill="#222"/></svg>